# Blender v2.70 (sub 2) OBJ File: ''
# www.blender.org
mtllib cube.mtl
o Cube
v 1.000000 -1.000000 -1.000000
v 1.000000 -1.000000 1.000000
v -1.000000 -1.000000 1.000000
v -1.000000 -1.000000 -1.000000
v 1.000000 1.000000 -0.999999
v 0.999999 1.000000 1.000001
v -1.000000 1.000000 1.000000
v -1.000000 1.000000 -1.000000
vt 0.000000 0.000000
vt 1.000000 0.000000
vt 1.000000 1.000000
vt 0.000000 1.000000
vn 0.000000 1.000000 0.000000
vn 0.000000 -1.000000 0.000000
vn -1.000000 0.000000 0.000000
vn -0.000000 -0.000000 -1.000000
vn 1.000000 -0.000000 -0.000000
vn 0.000000 0.000000 1.000000
usemtl Material
s off

f 4/4/1 3/3/1 2/2/1 1/1/1
f 6/4/2 7/3/2 8/2/2 5/1/2
f 2/4/3 6/3/3 5/2/3 1/1/3
f 3/4/4 7/3/4 6/2/4 2/1/4
f 4/4/5 8/3/5 7/2/5 3/1/5
f 8/4/6 4/3/6 1/2/6 5/1/6
